# xmcd
#
# Track frame offsets: 
#        150
#        21835
#        49037
#        65470
#        89497
#        113522
#        136047
#        156845
#        178490
#        201310
#        222417
#
# Disc length: 3234 seconds
#
# Revision: 1
# Processed by: cddbd v1.5.2PL0 Copyright (c) Steve Scherf et al.
# Submitted via: ExactAudioCopy v0.99pb4
#
DISCID=9d0ca00b
DTITLE=European Jazz Trio - Angie
DYEAR=2004
DGENRE=Jazz
TTITLE0=Django
TTITLE1=Golden Earrings
TTITLE2=Angie
TTITLE3=Scarborough Fair
TTITLE4=Lament
TTITLE5=La Bamba
TTITLE6=Once Upon A Summertime
TTITLE7=Besame Mucho
TTITLE8=Adagio Cardinal
TTITLE9=Sho-Time
TTITLE10=The Wind Cries Mary
EXTD=YEAR: 2004
EXTT0=
EXTT1=
EXTT2=
EXTT3=
EXTT4=
EXTT5=
EXTT6=
EXTT7=
EXTT8=
EXTT9=
EXTT10=
PLAYORDER=
